<svg width="32" height="32" viewBox="0 0 32 32" fill="none" xmlns="http://www.w3.org/2000/svg">
<path d="M11.3 3.60001V10.5C12.1 9.6 13 8.9 13.9 8.5C14.8 8 15.9 7.8 17.2 7.8C18.7 7.8 20 8.19999 21.1 8.89999C22.2 9.59999 23.1 10.6 23.7 12C24.3 13.3 24.6 14.9 24.6 16.8C24.6 18.2 24.4 19.4 24.1 20.6C23.8 21.8 23.3 22.7 22.6 23.6C21.9 24.4 21.1 25.1 20.2 25.5C19.3 26 18.2 26.2 17.1 26.2C16.4 26.2 15.8 26.1 15.1 26C14.5 25.8 14 25.6 13.5 25.3C13.1 25 12.7 24.8 12.4 24.5C12.1 24.2 11.7 23.8 11.2 23.2V23.6C11.2 24.4 11 25.1 10.6 25.5C10.2 25.9 9.7 26.2 9 26.2C8.4 26.2 7.9 26 7.5 25.5C7.1 25.1 6.89999 24.4 6.89999 23.6V3.89999C6.89999 2.99999 7.1 2.3 7.5 1.8C7.9 1.3 8.4 1.10001 9 1.10001C9.7 1.10001 10.2 1.3 10.6 1.8C11.1 2.1 11.3 2.70001 11.3 3.60001ZM11.5 16.9C11.5 18.7 11.9 20.1 12.7 21C13.5 22 14.6 22.4 15.9 22.4C17 22.4 18 21.9 18.8 20.9C19.6 19.9 20 18.5 20 16.7C20 15.5 19.8 14.5 19.5 13.6C19.2 12.7 18.7 12.1 18 11.6C17.3 11.1 16.6 10.9 15.8 10.9C14.9 10.9 14.2 11.1 13.5 11.6C12.8 12.1 12.3 12.7 11.9 13.6C11.5 14.5 11.5 15.7 11.5 16.9Z" fill="#AFE7A1"/>
<path d="M24.6 15.9C24.6 16.2 24.6 16.4 24.6 16.7C24.6 18.1 24.4 19.3 24.1 20.5C23.8 21.7 23.3 22.6 22.6 23.5C21.9 24.3 21.1 25 20.2 25.4C19.3 25.9 18.2 26.1 17.1 26.1C16.4 26.1 15.8 26 15.1 25.9C14.5 25.7 14 25.5 13.5 25.2C13.1 24.9 12.7 24.7 12.4 24.4C12.1 24.1 11.7 23.7 11.2 23.1V23.5C11.2 24.3 11 25 10.6 25.4C10.2 25.8 9.7 26.1 9 26.1C8.4 26.1 7.9 25.9 7.5 25.4C7.1 25 6.89999 24.3 6.89999 23.5C7.19999 23.6 7.4 23.8 7.5 23.9C7.9 24.3 8.4 24.6 9 24.6C9.6 24.6 10.1 24.4 10.6 23.9C11 23.5 11.2 22.8 11.2 22V21.6C11.7 22.2 12.1 22.6 12.4 22.9C12.7 23.2 13.1 23.5 13.5 23.7C13.9 24 14.4 24.2 15.1 24.4C15.7 24.6 16.4 24.6 17.1 24.6C18.2 24.6 19.3 24.4 20.2 23.9C21.1 23.4 21.9 22.8 22.6 22C23.3 21.2 23.8 20.2 24.1 19C24.4 17.9 24.5 17 24.6 15.9Z" fill="black"/>
<path d="M11.3 3.60001V10.5C12.1 9.6 13 8.9 13.9 8.5C14.8 8 15.9 7.8 17.2 7.8C18.7 7.8 20 8.19999 21.1 8.89999C22.2 9.59999 23.1 10.6 23.7 12C24.3 13.3 24.6 14.9 24.6 16.8C24.6 18.2 24.4 19.4 24.1 20.6C23.8 21.8 23.3 22.7 22.6 23.6C21.9 24.4 21.1 25.1 20.2 25.5C19.3 26 18.2 26.2 17.1 26.2C16.4 26.2 15.8 26.1 15.1 26C14.5 25.8 14 25.6 13.5 25.3C13.1 25 12.7 24.8 12.4 24.5C12.1 24.2 11.7 23.8 11.2 23.2V23.6C11.2 24.4 11 25.1 10.6 25.5C10.2 25.9 9.7 26.2 9 26.2C8.4 26.2 7.9 26 7.5 25.5C7.1 25.1 6.89999 24.4 6.89999 23.6V3.89999C6.89999 2.99999 7.1 2.3 7.5 1.8C7.9 1.3 8.4 1.10001 9 1.10001C9.7 1.10001 10.2 1.3 10.6 1.8C11.1 2.1 11.3 2.70001 11.3 3.60001ZM11.5 16.9C11.5 18.7 11.9 20.1 12.7 21C13.5 22 14.6 22.4 15.9 22.4C17 22.4 18 21.9 18.8 20.9C19.6 19.9 20 18.5 20 16.7C20 15.5 19.8 14.5 19.5 13.6C19.2 12.7 18.7 12.1 18 11.6C17.3 11.1 16.6 10.9 15.8 10.9C14.9 10.9 14.2 11.1 13.5 11.6C12.8 12.1 12.3 12.7 11.9 13.6C11.5 14.5 11.5 15.7 11.5 16.9Z" stroke="black" stroke-linejoin="round"/>
<path d="M13 10.5C15.3 8.79999 17.6 8.5 19.9 9.6" stroke="white" stroke-linecap="round" stroke-linejoin="round" stroke-dasharray="1 1"/>
</svg>
